<svg width="16" height="16" viewBox="0 0 16 16" fill="none" xmlns="http://www.w3.org/2000/svg">
<g clip-path="url(#clip0_35337_107)">
<path opacity="0.4" d="M5.625 14H3C2.20435 14 1.44129 13.6839 0.87868 13.1213C0.31607 12.5587 0 11.7956 0 11L0 5C0 4.20435 0.31607 3.44129 0.87868 2.87868C1.44129 2.31607 2.20435 2 3 2H5.625C5.72446 2 5.81984 2.03951 5.89016 2.10983C5.96049 2.18016 6 2.27554 6 2.375V3.625C6 3.72446 5.96049 3.81984 5.89016 3.89017C5.81984 3.96049 5.72446 4 5.625 4H3C2.73478 4 2.48043 4.10536 2.29289 4.29289C2.10536 4.48043 2 4.73478 2 5V11C2 11.2652 2.10536 11.5196 2.29289 11.7071C2.48043 11.8946 2.73478 12 3 12H5.625C5.72446 12 5.81984 12.0395 5.89016 12.1098C5.96049 12.1802 6 12.2755 6 12.375V13.625C6 13.7245 5.96049 13.8198 5.89016 13.8902C5.81984 13.9605 5.72446 14 5.625 14Z" fill="#213F7D"/>
<path d="M11.0313 2.7594L15.7781 7.46565C15.8485 7.53538 15.9044 7.61837 15.9425 7.70983C15.9807 7.80128 16.0003 7.89938 16.0003 7.99846C16.0003 8.09755 15.9807 8.19565 15.9425 8.2871C15.9044 8.37855 15.8485 8.46154 15.7781 8.53128L11.0281 13.2438C10.8868 13.383 10.6962 13.4608 10.4978 13.4602C10.2994 13.4596 10.1093 13.3807 9.96875 13.2407L9.28438 12.5563C9.21298 12.4844 9.15683 12.3989 9.1193 12.3048C9.08177 12.2107 9.06363 12.11 9.06596 12.0088C9.0683 11.9075 9.09106 11.8077 9.13289 11.7155C9.17472 11.6232 9.23475 11.5404 9.30938 11.4719L11.7344 9.25003H5.75C5.65144 9.25027 5.5538 9.23104 5.4627 9.19344C5.37159 9.15584 5.28881 9.1006 5.21912 9.03091C5.14943 8.96122 5.09419 8.87844 5.05659 8.78733C5.01899 8.69623 4.99976 8.59859 5 8.50003V7.50003C4.99976 7.40147 5.01899 7.30383 5.05659 7.21272C5.09419 7.12162 5.14943 7.03884 5.21912 6.96914C5.28881 6.89945 5.37159 6.84422 5.4627 6.80661C5.5538 6.76901 5.65144 6.74978 5.75 6.75003H11.7344L9.30938 4.52815C9.23516 4.45965 9.17555 4.37687 9.1341 4.28478C9.09266 4.19268 9.07025 4.09316 9.0682 3.99218C9.06616 3.89121 9.08453 3.79087 9.12222 3.69717C9.1599 3.60347 9.21612 3.51834 9.2875 3.4469L9.97188 2.76253C10.1121 2.62185 10.3023 2.54252 10.5009 2.54193C10.6995 2.54135 10.8902 2.61956 11.0313 2.7594Z" fill="#213F7D"/>
</g>
<defs>
<clipPath id="clip0_35337_107">
<rect width="16" height="16" fill="white"/>
</clipPath>
</defs>
</svg>
